<svg xmlns="http://www.w3.org/2000/svg" viewBox="0 0 1000 1320" role="img" aria-labelledby="title desc">
  <title id="title">Illustrated map of Blackwood</title><desc id="desc">A dark engraved map with forest, lake, roads and town districts.</desc>
  <defs>
    <linearGradient id="paper" x1="0" y1="0" x2="1" y2="1"><stop stop-color="#1a1917"/><stop offset=".55" stop-color="#111312"/><stop offset="1" stop-color="#080a09"/></linearGradient>
    <radialGradient id="town"><stop stop-color="#66533c" stop-opacity=".2"/><stop offset="1" stop-color="#000" stop-opacity="0"/></radialGradient>
    <pattern id="grain" width="36" height="36" patternUnits="userSpaceOnUse"><circle cx="4" cy="7" r="1" fill="#d2b98c" opacity=".08"/><path d="M0 28l36-8M8 0l20 36" stroke="#c8af82" stroke-opacity=".035"/></pattern>
    <pattern id="trees" width="54" height="64" patternUnits="userSpaceOnUse"><path d="M27 4l-18 34h12L8 54h38L33 38h12z" fill="#18201b" stroke="#3d453a" stroke-width="1"/></pattern>
    <filter id="soft"><feGaussianBlur stdDeviation="8"/></filter>
  </defs>
  <rect width="1000" height="1320" fill="url(#paper)"/>
  <rect width="1000" height="1320" fill="url(#grain)"/>
  <path d="M0 0h1000v360C835 316 790 420 722 503c-73 90-173 144-298 190C278 746 158 816 0 918z" fill="url(#trees)" opacity=".78"/>
  <path d="M708 0h292v1320H825c38-119 32-215-18-293-53-82-44-176 18-271 50-78 29-154-45-229-81-81-79-178-6-291C822 163 800 84 708 0z" fill="#151d20" stroke="#39464a" stroke-width="5"/>
  <path d="M760 0c112 112 106 199 18 311-65 83-58 162 17 238 70 70 84 145 38 226-58 101-55 189 8 275 46 63 54 154 22 270" fill="none" stroke="#536368" stroke-opacity=".48" stroke-width="12"/>
  <ellipse cx="480" cy="675" rx="370" ry="455" fill="url(#town)"/>
  <g fill="none" stroke="#7b6d57" stroke-opacity=".56" stroke-linecap="round">
    <path d="M146 1050C280 875 350 790 480 675S705 470 835 270" stroke-width="16"/>
    <path d="M150 430C310 520 390 575 480 675s175 204 350 330" stroke-width="13"/>
    <path d="M90 760c170-45 280-64 390-85s240-19 400 55" stroke-width="11"/>
    <path d="M300 260c80 170 120 260 180 415s70 310 40 520" stroke-width="10"/>
    <path d="M680 175c-100 150-145 257-200 500s-115 350-250 470" stroke-width="8"/>
  </g>
  <g fill="#1c211f" stroke="#554c3c" stroke-width="3">
    <path d="M230 510h95v76h-95zM350 560h105v86H350zM500 525h90v82h-90zM610 585h110v88H610zM260 690h100v80H260zM405 700h110v90H405zM560 720h105v85H560zM675 770h96v80h-96zM315 850h106v88H315zM480 875h105v88H480zM610 930h112v90H610zM210 990h110v85H210z"/>
  </g>
  <g fill="#b98448" opacity=".7"><rect x="245" y="530" width="18" height="25"/><rect x="378" y="585" width="20" height="27"/><rect x="527" y="548" width="18" height="25"/><rect x="642" y="608" width="20" height="27"/><rect x="286" y="713" width="20" height="27"/><rect x="438" y="727" width="20" height="27"/><rect x="592" y="745" width="20" height="27"/><rect x="700" y="792" width="18" height="25"/><rect x="348" y="875" width="20" height="27"/><rect x="515" y="900" width="20" height="27"/><rect x="646" y="954" width="20" height="27"/></g>
  <g stroke="#3e463d" fill="#121814">
    <path d="M118 150l34-78 34 78h-20l24 46h-76l24-46zM205 202l30-70 30 70h-18l22 42h-68l22-42zM95 260l34-78 34 78h-20l24 46H91l24-46zM610 98l32-74 32 74h-19l23 44h-72l23-44z"/>
  </g>
  <g fill="#171817" stroke="#71624c" stroke-width="4">
    <path d="M245 405h105v76H245z"/><path d="M530 360h100v78H530z"/><path d="M720 490h110v75H720z"/><path d="M180 820h100v76H180z"/><path d="M720 930h115v80H720z"/>
  </g>
  <g fill="#a66a34"><circle cx="298" cy="443" r="7"/><circle cx="580" cy="398" r="7"/><circle cx="775" cy="530" r="7"/><circle cx="230" cy="858" r="7"/><circle cx="775" cy="970" r="7"/></g>
  <g opacity=".25" stroke="#b32630" stroke-width="6" fill="none"><path d="M55 1180c170-80 340-96 505-58s280 37 390-25"/><path d="M85 1210c170-54 340-60 510-18s255 36 350 5"/></g>
  <g font-family="Georgia,serif" fill="#cbb99a"><text x="58" y="70" font-size="30" letter-spacing="8">BLACKWOOD</text><text x="60" y="106" font-size="15" letter-spacing="5" fill="#8e816b">DISTRICT SURVEY · 1882</text></g>
  <g opacity=".25" stroke="#d6bb8d" fill="none"><circle cx="870" cy="1160" r="62"/><path d="M870 1082v156M792 1160h156M820 1110l100 100M920 1110l-100 100"/></g>
</svg>