<svg xmlns="http://www.w3.org/2000/svg" viewBox="0 0 1600 900" role="img" aria-labelledby="title desc">
  <title id="title">Cafe Hollow at night</title><desc id="desc">A rainy Blackwood street with Cafe Hollow glowing warmly.</desc>
  <defs>
    <linearGradient id="sky" x1="0" y1="0" x2="0" y2="1"><stop stop-color="#121720"/><stop offset="1" stop-color="#06080b"/></linearGradient>
    <linearGradient id="wall" x1="0" y1="0" x2="1" y2="1"><stop stop-color="#261e1a"/><stop offset="1" stop-color="#0a0b0d"/></linearGradient>
    <linearGradient id="wet" x1="0" y1="0" x2="0" y2="1"><stop stop-color="#1d252b"/><stop offset="1" stop-color="#07090b"/></linearGradient>
    <radialGradient id="warm"><stop stop-color="#ffd690" stop-opacity=".95"/><stop offset=".35" stop-color="#d98d3f" stop-opacity=".45"/><stop offset="1" stop-color="#d98d3f" stop-opacity="0"/></radialGradient>
    <pattern id="rain" width="42" height="60" patternUnits="userSpaceOnUse" patternTransform="skewX(-15)"><path d="M12 0v34M32 16v38" stroke="#d5e4e9" stroke-opacity=".14" stroke-width="2"/></pattern>
    <filter id="blur"><feGaussianBlur stdDeviation="16"/></filter>
  </defs>
  <rect width="1600" height="900" fill="url(#sky)"/>
  <path d="M0 330L120 210l120 95 145-175 130 165 125-130 140 160 135-220 145 205 120-95 140 115v120H0z" fill="#11171b"/>
  <rect y="485" width="1600" height="415" fill="url(#wet)"/>
  <path d="M0 900L630 490h380l590 410z" fill="#12171b"/>
  <g fill="#090b0d" stroke="#3f352d" stroke-width="4">
    <rect x="0" y="330" width="390" height="370"/><rect x="330" y="390" width="310" height="300"/>
  </g>
  <g fill="url(#wall)" stroke="#4f4033" stroke-width="5">
    <path d="M980 235h620v510H980z"/><path d="M900 390h130v355H900z"/>
  </g>
  <path d="M950 350h650v72H950z" fill="#171514" stroke="#715335" stroke-width="5"/>
  <text x="1060" y="402" font-family="Georgia,serif" font-size="54" letter-spacing="5" fill="#d6a15d">CAFÉ HOLLOW</text>
  <text x="1125" y="432" font-family="Georgia,serif" font-size="16" letter-spacing="3" fill="#9d8062">COFFEE · CONVERSATION · CONFIDENCES</text>
  <g fill="#dca05c">
    <rect x="1015" y="465" width="150" height="185" rx="4"/><rect x="1190" y="465" width="150" height="185" rx="4"/><rect x="1365" y="465" width="150" height="185" rx="4"/>
  </g>
  <g fill="#16191b"><rect x="1078" y="465" width="10" height="185"/><rect x="1253" y="465" width="10" height="185"/><rect x="1428" y="465" width="10" height="185"/><path d="M1015 550h500" stroke="#17191b" stroke-width="11"/></g>
  <g opacity=".8" fill="#171310"><circle cx="1120" cy="590" r="34"/><circle cx="1290" cy="580" r="31"/><circle cx="1450" cy="600" r="35"/></g>
  <g fill="#a47242"><circle cx="1090" cy="500" r="9"/><circle cx="1230" cy="505" r="9"/><circle cx="1400" cy="500" r="9"/></g>
  <circle cx="1240" cy="520" r="190" fill="url(#warm)" filter="url(#blur)"/>
  <g>
    <circle cx="475" cy="510" r="100" fill="url(#warm)" filter="url(#blur)"/>
    <path d="M475 340v350" stroke="#07080a" stroke-width="14"/><path d="M444 345h62l-10 52h-42z" fill="#d79a50" stroke="#101112" stroke-width="8"/>
  </g>
  <g fill="#131110" stroke="#6e5236" stroke-width="4"><path d="M1050 625h150v145h-150z"/><path d="M1070 645h110v88h-110z" fill="#171716"/></g>
  <text x="1087" y="684" font-family="Georgia,serif" font-size="25" fill="#d5a363">CAFÉ</text><text x="1080" y="716" font-family="Georgia,serif" font-size="25" fill="#d5a363">HOLLOW</text><text x="1093" y="752" font-family="Georgia,serif" font-size="24" fill="#e2c28f">OPEN</text>
  <g stroke="#d9a25b" stroke-opacity=".18" stroke-width="8"><path d="M490 900l80-390M1100 900l120-420M1400 900l60-420"/></g>
  <g stroke="#c6d9df" stroke-opacity=".15" stroke-width="5"><path d="M100 850l300-350M250 900l270-390M720 900l120-400"/></g>
  <rect width="1600" height="900" fill="url(#rain)"/>
  <rect y="760" width="1600" height="140" fill="#050608" opacity=".52"/>
</svg>